<svg width="327" height="52" viewBox="0 0 327 52" fill="none" xmlns="http://www.w3.org/2000/svg">
<rect x="0.5" y="0.5" width="326" height="51" rx="9.5" fill="white"/>
<rect x="0.5" y="0.5" width="326" height="51" rx="9.5" stroke="black"/>
<path d="M131.41 23.7871C131.13 22.8574 130.385 22.29 129.305 22.2832C127.773 22.29 126.734 23.459 126.734 25.5371C126.734 27.6289 127.739 28.8115 129.318 28.8184C130.733 28.8115 131.574 28.0117 131.602 26.7676H129.455V25.2227H133.584V26.4531C133.584 29.0508 131.8 30.6367 129.305 30.6367C126.529 30.6367 124.643 28.6953 124.643 25.5645C124.643 22.3516 126.652 20.4648 129.264 20.4648C131.499 20.4648 133.215 21.8389 133.488 23.7871H131.41ZM138.383 30.6504C136.141 30.6436 134.739 29.1055 134.746 26.8086C134.739 24.5186 136.141 22.9805 138.383 22.9805C140.632 22.9805 142.026 24.5186 142.033 26.8086C142.026 29.1055 140.632 30.6436 138.383 30.6504ZM136.797 26.8086C136.797 28.1074 137.337 29.0713 138.396 29.0781C139.429 29.0713 139.976 28.1074 139.969 26.8086C139.976 25.5029 139.429 24.5254 138.396 24.5254C137.337 24.5254 136.797 25.5029 136.797 26.8086ZM146.641 30.6504C144.398 30.6436 142.997 29.1055 143.004 26.8086C142.997 24.5186 144.398 22.9805 146.641 22.9805C148.89 22.9805 150.284 24.5186 150.291 26.8086C150.284 29.1055 148.89 30.6436 146.641 30.6504ZM145.055 26.8086C145.055 28.1074 145.595 29.0713 146.654 29.0781C147.687 29.0713 148.233 28.1074 148.227 26.8086C148.233 25.5029 147.687 24.5254 146.654 24.5254C145.595 24.5254 145.055 25.5029 145.055 26.8086ZM154.898 33.4395C152.848 33.4395 151.583 32.5166 151.467 31.1152H153.463C153.572 31.71 154.133 31.9766 154.939 31.9766C155.876 31.9766 156.505 31.5732 156.512 30.541V29.1875H156.416C156.149 29.7891 155.493 30.3975 154.297 30.3906C152.622 30.3975 151.275 29.2148 151.275 26.7402C151.275 24.2314 152.656 22.9805 154.297 22.9805C155.541 22.9805 156.143 23.7188 156.416 24.3203H156.498V23.0762H158.508V30.582C158.501 32.4756 157.011 33.4395 154.898 33.4395ZM153.354 26.7676C153.347 28.0527 153.9 28.8662 154.926 28.873C155.938 28.8662 156.512 28.0869 156.512 26.7676C156.512 25.4482 155.944 24.5938 154.926 24.5938C153.894 24.5938 153.347 25.4893 153.354 26.7676ZM162.104 20.6016V30.5H160.08V20.6016H162.104ZM167.039 30.6504C164.763 30.6436 163.368 29.1738 163.375 26.8223C163.368 24.5322 164.783 22.9805 166.957 22.9805C168.905 22.9805 170.443 24.2109 170.443 26.7402V27.3145H165.371C165.371 28.4355 166.034 29.126 167.08 29.1328C167.771 29.126 168.263 28.8252 168.461 28.3809H170.389C170.102 29.7549 168.871 30.6436 167.039 30.6504ZM165.371 26.043H168.529C168.522 25.1406 167.9 24.4912 166.998 24.498C166.068 24.4912 165.412 25.1885 165.371 26.043ZM182.68 28.9414V30.377H171.291V28.9414H176.09V27.0684H172.604V22.8848H179.645V21.5176H172.59V20.123H181.367V24.252H174.354V25.6465H181.654V27.0684H177.826V28.9414H182.68ZM197.076 19.3164V31.7578H195.34V19.3164H197.076ZM186.672 28.2441C187.622 28.2373 188.709 28.2373 189.844 28.21V27.1572C188.483 26.9111 187.595 26.0635 187.602 24.8945C187.595 23.5068 188.859 22.5566 190.691 22.5566C192.537 22.5566 193.822 23.5068 193.822 24.8945C193.822 26.0566 192.934 26.9043 191.566 27.1572V28.1484C192.612 28.1006 193.658 28.0186 194.656 27.8887L194.779 29.1738C192.052 29.6455 189.119 29.6729 186.904 29.666L186.672 28.2441ZM186.918 22.0645V20.6973H189.844V19.3711H191.58V20.6973H194.479V22.0645H186.918ZM189.256 24.8945C189.249 25.5508 189.844 25.9062 190.691 25.9062C191.566 25.9062 192.154 25.5508 192.154 24.8945C192.154 24.252 191.566 23.8896 190.691 23.8828C189.844 23.8896 189.249 24.252 189.256 24.8945ZM209.258 19.3301V28.7227H207.508V27.7383H205.129V26.5488H207.508V19.3301H209.258ZM198.676 24.8398C200.952 24.8262 204.028 24.792 206.66 24.4707L206.756 25.7148C205.771 25.8789 204.753 25.9951 203.748 26.0703V28.4355H201.998V30.1445H209.531V31.5391H200.262V27.8203H201.998V26.1729C200.884 26.2139 199.824 26.2207 198.881 26.2207L198.676 24.8398ZM199.592 21.9824C199.592 20.6562 200.87 19.7471 202.723 19.7539C204.527 19.7471 205.819 20.6562 205.826 21.9824C205.819 23.3154 204.527 24.1768 202.723 24.1699C200.87 24.1768 199.592 23.3154 199.592 21.9824ZM201.246 21.9824C201.239 22.584 201.834 22.9189 202.723 22.9121C203.557 22.9189 204.158 22.584 204.172 21.9824C204.158 21.3672 203.557 21.0254 202.723 21.0254C201.834 21.0254 201.239 21.3672 201.246 21.9824ZM220.633 19.3164V24.0879H222.396V25.5234H220.633V31.7305H218.883V19.3164H220.633ZM210.68 28.2441C213.626 26.7676 215.212 24.7852 215.54 22.0098H211.391V20.5879H217.311C217.297 24.3066 215.848 27.5264 211.664 29.584L210.68 28.2441ZM233.334 19.3164V26.002H231.584V19.3164H233.334ZM223.107 22.7891C223.107 21.0391 224.57 19.8223 226.512 19.8359C228.446 19.8223 229.909 21.0391 229.916 22.7891C229.909 24.4844 228.446 25.7012 226.512 25.7012C224.57 25.7012 223.107 24.4844 223.107 22.7891ZM224.816 22.7891C224.803 23.7119 225.514 24.2656 226.512 24.2656C227.482 24.2656 228.187 23.7119 228.193 22.7891C228.187 21.8525 227.482 21.2783 226.512 21.2852C225.514 21.2783 224.803 21.8525 224.816 22.7891ZM225.008 31.6211V26.5488H226.73V27.7109H231.598V26.5488H233.334V31.6211H225.008ZM226.73 30.2129H231.598V29.0645H226.73V30.2129Z" fill="black"/>
</svg>
