<svg width="24" height="24" viewBox="0 0 24 24" fill="none" xmlns="http://www.w3.org/2000/svg">
<path d="M6.25176 6.25201C6.33137 6.1722 6.42593 6.10888 6.53004 6.06568C6.63416 6.02248 6.74577 6.00024 6.85849 6.00024C6.97121 6.00024 7.08282 6.02248 7.18693 6.06568C7.29104 6.10888 7.38561 6.1722 7.46521 6.25201L12.0002 10.7887L16.5352 6.25201C16.6149 6.17233 16.7095 6.10913 16.8136 6.06601C16.9177 6.02289 17.0293 6.00069 17.142 6.00069C17.2546 6.00069 17.3662 6.02289 17.4703 6.06601C17.5744 6.10913 17.669 6.17233 17.7487 6.25201C17.8284 6.33168 17.8916 6.42627 17.9347 6.53037C17.9778 6.63448 18 6.74605 18 6.85873C18 6.97141 17.9778 7.08299 17.9347 7.18709C17.8916 7.29119 17.8284 7.38578 17.7487 7.46546L13.212 12.0005L17.7487 16.5355C17.8284 16.6152 17.8916 16.7097 17.9347 16.8138C17.9778 16.918 18 17.0295 18 17.1422C18 17.2549 17.9778 17.3665 17.9347 17.4706C17.8916 17.5747 17.8284 17.6693 17.7487 17.7489C17.669 17.8286 17.5744 17.8918 17.4703 17.9349C17.3662 17.9781 17.2546 18.0002 17.142 18.0002C17.0293 18.0002 16.9177 17.9781 16.8136 17.9349C16.7095 17.8918 16.6149 17.8286 16.5352 17.7489L12.0002 13.2122L7.46521 17.7489C7.38554 17.8286 7.29095 17.8918 7.18685 17.9349C7.08274 17.9781 6.97117 18.0002 6.85849 18.0002C6.74581 18.0002 6.63423 17.9781 6.53013 17.9349C6.42603 17.8918 6.33144 17.8286 6.25176 17.7489C6.17209 17.6693 6.10888 17.5747 6.06576 17.4706C6.02264 17.3665 6.00045 17.2549 6.00045 17.1422C6.00045 17.0295 6.02264 16.918 6.06576 16.8138C6.10888 16.7097 6.17209 16.6152 6.25176 16.5355L10.7885 12.0005L6.25176 7.46546C6.17196 7.38585 6.10864 7.29129 6.06544 7.18718C6.02224 7.08306 6 6.97145 6 6.85873C6 6.74601 6.02224 6.6344 6.06544 6.53029C6.10864 6.42618 6.17196 6.33161 6.25176 6.25201Z" fill="black"/>
</svg>
