<svg width="18" height="19" viewBox="0 0 18 19" fill="none" xmlns="http://www.w3.org/2000/svg">
<path d="M0.377644 0.877644C0.49705 0.757936 0.638899 0.66296 0.795067 0.598158C0.951234 0.533355 1.11865 0.5 1.28773 0.5C1.45681 0.5 1.62423 0.533355 1.7804 0.598158C1.93656 0.66296 2.07841 0.757936 2.19782 0.877644L9.00034 7.68273L15.8029 0.877644C15.9224 0.758129 16.0643 0.663325 16.2204 0.598645C16.3766 0.533964 16.5439 0.500673 16.7129 0.500673C16.882 0.500673 17.0493 0.533964 17.2055 0.598645C17.3616 0.663325 17.5035 0.758129 17.623 0.877644C17.7425 0.997158 17.8373 1.13904 17.902 1.2952C17.9667 1.45135 18 1.61871 18 1.78773C18 1.95675 17.9667 2.12411 17.902 2.28027C17.8373 2.43642 17.7425 2.5783 17.623 2.69782L10.8179 9.50034L17.623 16.3029C17.7425 16.4224 17.8373 16.5643 17.902 16.7204C17.9667 16.8766 18 17.0439 18 17.2129C18 17.382 17.9667 17.5493 17.902 17.7055C17.8373 17.8616 17.7425 18.0035 17.623 18.123C17.5035 18.2425 17.3616 18.3373 17.2055 18.402C17.0493 18.4667 16.882 18.5 16.7129 18.5C16.5439 18.5 16.3766 18.4667 16.2204 18.402C16.0643 18.3373 15.9224 18.2425 15.8029 18.123L9.00034 11.3179L2.19782 18.123C2.0783 18.2425 1.93642 18.3373 1.78027 18.402C1.62411 18.4667 1.45675 18.5 1.28773 18.5C1.11871 18.5 0.951348 18.4667 0.795195 18.402C0.639042 18.3373 0.497158 18.2425 0.377644 18.123C0.258129 18.0035 0.163325 17.8616 0.0986446 17.7055C0.0339638 17.5493 0.000673011 17.382 0.000673011 17.2129C0.000673011 17.0439 0.0339638 16.8766 0.0986446 16.7204C0.163325 16.5643 0.258129 16.4224 0.377644 16.3029L7.18273 9.50034L0.377644 2.69782C0.257936 2.57841 0.16296 2.43656 0.0981579 2.2804C0.0333554 2.12423 0 1.95681 0 1.78773C0 1.61865 0.0333554 1.45123 0.0981579 1.29507C0.16296 1.1389 0.257936 0.99705 0.377644 0.877644Z" fill="black"/>
</svg>
