<svg width="328" height="52" viewBox="0 0 328 52" fill="none" xmlns="http://www.w3.org/2000/svg">
  <rect width="328" height="52" rx="10" fill="#F5F5F5"/>
  <svg x="10" y="10" width="32" height="32" viewBox="0 0 24 24" fill="none" xmlns="http://www.w3.org/2000/svg">
    <path d="M22.56 12.25C22.56 11.47 22.49 10.72 22.36 10H12V14.26H17.92C17.66 15.63 16.88 16.79 15.71 17.57V20.34H19.28C21.36 18.42 22.56 15.6 22.56 12.25Z" fill="#4285F4"/>
    <path d="M12 23C14.97 23 17.46 22.02 19.28 20.34L15.71 17.57C14.73 18.23 13.48 18.63 12 18.63C9.13999 18.63 6.70999 16.7 5.83999 14.1H2.17999V16.94C3.98999 20.53 7.69999 23 12 23Z" fill="#34A853"/>
    <path d="M5.84 14.09C5.62 13.43 5.49 12.73 5.49 12C5.49 11.27 5.62 10.57 5.84 9.91001V7.07001H2.18C1.43 8.55001 1 10.22 1 12C1 13.78 1.43 15.45 2.18 16.93L5.03 14.71L5.84 14.09Z" fill="#FBBC05"/>
    <path d="M12 5.38C13.62 5.38 15.06 5.94 16.21 7.02L19.36 3.87C17.45 2.09 14.97 1 12 1C7.69999 1 3.98999 3.47 2.17999 7.07L5.83999 9.91C6.70999 7.31 9.13999 5.38 12 5.38Z" fill="#EA4335"/>
  </svg>
  <path d="M162.77 19.3164V31.7852H161.047V25.1133H158.736V28.832H152.734V20.2734H154.471V23.2949H157.027V20.2734H158.736V23.7051H161.047V19.3164H162.77ZM154.471 27.4375H157.027V24.6621H154.471V27.4375ZM175.717 26.043V27.4102H164.342V26.043H175.717ZM165.736 31.5391V28.0391H167.459V30.1445H174.568V31.5391H165.736ZM165.764 25.2637V19.7266H174.391V21.0527H167.514V21.8457H174.104V23.1309H167.514V23.9512H174.5V25.2637H165.764Z" fill="black"/>
</svg>