<svg width="20" height="20" viewBox="0 0 20 20" fill="none" xmlns="http://www.w3.org/2000/svg">
<g clip-path="url(#clip0_382_1804)">
<path d="M14.6774 12.9301C15.8878 11.2785 16.4299 9.23074 16.1953 7.19656C15.9607 5.16239 14.9667 3.2918 13.4121 1.95904C11.8575 0.626277 9.85709 -0.0703699 7.81095 0.00847151C5.76481 0.087313 3.82388 0.935828 2.37649 2.38426C0.929091 3.83269 0.0819647 5.77422 0.00458746 7.82042C-0.0727898 9.86661 0.625288 11.8666 1.95916 13.4202C3.29303 14.9738 5.16433 15.9665 7.19868 16.1996C9.23302 16.4328 11.2804 15.8892 12.9312 14.6776H12.9299C12.9666 14.7276 13.0074 14.7755 13.0524 14.8214L17.8649 19.6339C18.0993 19.8684 18.4172 20.0003 18.7488 20.0004C19.0804 20.0005 19.3985 19.8689 19.633 19.6345C19.8676 19.4001 19.9994 19.0822 19.9995 18.7506C19.9996 18.419 19.868 18.1009 19.6337 17.8664L14.8212 13.0539C14.7765 13.0086 14.7284 12.9681 14.6774 12.9301ZM14.9999 8.12513C14.9999 9.02796 14.8221 9.92196 14.4766 10.7561C14.1311 11.5902 13.6247 12.3481 12.9863 12.9865C12.3479 13.6249 11.59 14.1313 10.7558 14.4768C9.92174 14.8223 9.02774 15.0001 8.1249 15.0001C7.22206 15.0001 6.32807 14.8223 5.49395 14.4768C4.65984 14.1313 3.90195 13.6249 3.26354 12.9865C2.62514 12.3481 2.11873 11.5902 1.77323 10.7561C1.42773 9.92196 1.2499 9.02796 1.2499 8.12513C1.2499 6.30176 1.97423 4.55308 3.26354 3.26377C4.55286 1.97445 6.30154 1.25013 8.1249 1.25013C9.94827 1.25013 11.6969 1.97445 12.9863 3.26377C14.2756 4.55308 14.9999 6.30176 14.9999 8.12513Z" fill="#888888"/>
</g>
<defs>
<clipPath id="clip0_382_1804">
<rect width="20" height="20" fill="white"/>
</clipPath>
</defs>
</svg>
