<svg width="48" height="48" viewBox="0 0 48 48" fill="none" xmlns="http://www.w3.org/2000/svg">
<g clip-path="url(#clip0_1324_1521)">
<path d="M26.9451 4.69834C26.6481 4.18104 26.2199 3.75124 25.7037 3.45236C25.1875 3.15348 24.6016 2.99609 24.0051 2.99609C23.4086 2.99609 22.8227 3.15348 22.3065 3.45236C21.7903 3.75124 21.3621 4.18104 21.0651 4.69834L0.494105 39.6993C-0.876895 42.0333 0.767105 45.0003 3.43411 45.0003H44.5731C47.2401 45.0003 48.8871 42.0303 47.5131 39.6993L26.9451 4.69834ZM23.9991 15.0003C25.6041 15.0003 26.8611 16.3863 26.6991 17.9853L25.6491 28.5063C25.6138 28.9197 25.4247 29.3047 25.1192 29.5852C24.8136 29.8658 24.4139 30.0215 23.9991 30.0215C23.5843 30.0215 23.1846 29.8658 22.879 29.5852C22.5735 29.3047 22.3844 28.9197 22.3491 28.5063L21.2991 17.9853C21.2614 17.608 21.3031 17.227 21.4216 16.8668C21.5401 16.5067 21.7328 16.1753 21.9871 15.8941C22.2415 15.6129 22.5519 15.3881 22.8985 15.2341C23.245 15.0802 23.6199 15.0006 23.9991 15.0003ZM24.0051 33.0003C24.8008 33.0003 25.5638 33.3164 26.1264 33.879C26.689 34.4416 27.0051 35.2047 27.0051 36.0003C27.0051 36.796 26.689 37.5591 26.1264 38.1217C25.5638 38.6843 24.8008 39.0003 24.0051 39.0003C23.2095 39.0003 22.4464 38.6843 21.8838 38.1217C21.3212 37.5591 21.0051 36.796 21.0051 36.0003C21.0051 35.2047 21.3212 34.4416 21.8838 33.879C22.4464 33.3164 23.2095 33.0003 24.0051 33.0003Z" fill="black"/>
</g>
<defs>
<clipPath id="clip0_1324_1521">
<rect width="48" height="48" fill="white"/>
</clipPath>
</defs>
</svg>
