<svg width="16" height="16" viewBox="0 0 16 16" fill="none" xmlns="http://www.w3.org/2000/svg">
<g clip-path="url(#clip0_728_2327)">
<path d="M8.9817 1.56644C8.88271 1.394 8.73998 1.25074 8.56791 1.15111C8.39584 1.05149 8.20053 0.999023 8.0017 0.999023C7.80287 0.999023 7.60756 1.05149 7.43549 1.15111C7.26343 1.25074 7.12069 1.394 7.0217 1.56644L0.164702 13.2334C-0.292298 14.0114 0.255702 15.0004 1.1447 15.0004H14.8577C15.7467 15.0004 16.2957 14.0104 15.8377 13.2334L8.9817 1.56644ZM7.9997 5.00044C8.5347 5.00044 8.9537 5.46244 8.8997 5.99544L8.5497 9.50244C8.53794 9.64021 8.4749 9.76855 8.37306 9.86208C8.27121 9.9556 8.13797 10.0075 7.9997 10.0075C7.86143 10.0075 7.72819 9.9556 7.62635 9.86208C7.5245 9.76855 7.46146 9.64021 7.4497 9.50244L7.0997 5.99544C7.08713 5.86967 7.10105 5.74267 7.14055 5.62261C7.18005 5.50254 7.24426 5.39209 7.32905 5.29835C7.41383 5.20462 7.51731 5.12968 7.63282 5.07837C7.74833 5.02706 7.87331 5.00051 7.9997 5.00044ZM8.0017 11.0004C8.26692 11.0004 8.52127 11.1058 8.70881 11.2933C8.89634 11.4809 9.0017 11.7352 9.0017 12.0004C9.0017 12.2657 8.89634 12.52 8.70881 12.7075C8.52127 12.8951 8.26692 13.0004 8.0017 13.0004C7.73649 13.0004 7.48213 12.8951 7.2946 12.7075C7.10706 12.52 7.0017 12.2657 7.0017 12.0004C7.0017 11.7352 7.10706 11.4809 7.2946 11.2933C7.48213 11.1058 7.73649 11.0004 8.0017 11.0004Z" fill="#FF4242"/>
</g>
<defs>
<clipPath id="clip0_728_2327">
<rect width="16" height="16" fill="white"/>
</clipPath>
</defs>
</svg>
