<svg width="32" height="32" viewBox="0 0 32 32" fill="none" xmlns="http://www.w3.org/2000/svg">
<g clip-path="url(#clip0_728_2300)">
<path d="M17.9644 3.1319C17.7664 2.78703 17.4809 2.5005 17.1368 2.30125C16.7927 2.10199 16.402 1.99707 16.0044 1.99707C15.6067 1.99707 15.2161 2.10199 14.872 2.30125C14.5278 2.5005 14.2424 2.78703 14.0444 3.1319L0.33038 26.4659C-0.58362 28.0219 0.51238 29.9999 2.29038 29.9999H29.7164C31.4944 29.9999 32.5924 28.0199 31.6764 26.4659L17.9644 3.1319ZM16.0004 9.9999C17.0704 9.9999 17.9084 10.9239 17.8004 11.9899L17.1004 19.0039C17.0769 19.2794 16.9508 19.5361 16.7471 19.7232C16.5434 19.9102 16.2769 20.014 16.0004 20.014C15.7238 20.014 15.4574 19.9102 15.2537 19.7232C15.05 19.5361 14.9239 19.2794 14.9004 19.0039L14.2004 11.9899C14.1752 11.7384 14.2031 11.4844 14.2821 11.2442C14.3611 11.0041 14.4895 10.7832 14.6591 10.5957C14.8286 10.4083 15.0356 10.2584 15.2666 10.1558C15.4976 10.0531 15.7476 10 16.0004 9.9999ZM16.0044 21.9999C16.5348 21.9999 17.0435 22.2106 17.4186 22.5857C17.7937 22.9608 18.0044 23.4695 18.0044 23.9999C18.0044 24.5303 17.7937 25.039 17.4186 25.4141C17.0435 25.7892 16.5348 25.9999 16.0044 25.9999C15.4739 25.9999 14.9652 25.7892 14.5902 25.4141C14.2151 25.039 14.0044 24.5303 14.0044 23.9999C14.0044 23.4695 14.2151 22.9608 14.5902 22.5857C14.9652 22.2106 15.4739 21.9999 16.0044 21.9999Z" fill="black"/>
</g>
<defs>
<clipPath id="clip0_728_2300">
<rect width="32" height="32" fill="white"/>
</clipPath>
</defs>
</svg>
