<svg width="20" height="20" viewBox="0 0 20 20" fill="none" xmlns="http://www.w3.org/2000/svg">
<g clip-path="url(#clip0_1324_1648)">
<path d="M11.2271 1.95732C11.1034 1.74177 10.925 1.56269 10.7099 1.43816C10.4948 1.31362 10.2507 1.24805 10.0021 1.24805C9.75359 1.24805 9.50946 1.31362 9.29437 1.43816C9.07928 1.56269 8.90087 1.74177 8.77713 1.95732L0.205877 16.5411C-0.365373 17.5136 0.319627 18.7498 1.43088 18.7498H18.5721C19.6834 18.7498 20.3696 17.5123 19.7971 16.5411L11.2271 1.95732ZM9.99963 6.24982C10.6684 6.24982 11.1921 6.82732 11.1246 7.49357L10.6871 11.8773C10.6724 12.0495 10.5936 12.21 10.4663 12.3269C10.339 12.4438 10.1725 12.5086 9.99963 12.5086C9.82679 12.5086 9.66024 12.4438 9.53293 12.3269C9.40563 12.21 9.32683 12.0495 9.31213 11.8773L8.87463 7.49357C8.85892 7.33636 8.87631 7.1776 8.92568 7.02753C8.97506 6.87745 9.05533 6.73938 9.16131 6.62221C9.26729 6.50504 9.39664 6.41137 9.54103 6.34723C9.68542 6.28309 9.84164 6.24991 9.99963 6.24982ZM10.0021 13.7498C10.3336 13.7498 10.6516 13.8815 10.886 14.1159C11.1204 14.3504 11.2521 14.6683 11.2521 14.9998C11.2521 15.3313 11.1204 15.6493 10.886 15.8837C10.6516 16.1181 10.3336 16.2498 10.0021 16.2498C9.67061 16.2498 9.35267 16.1181 9.11825 15.8837C8.88383 15.6493 8.75213 15.3313 8.75213 14.9998C8.75213 14.6683 8.88383 14.3504 9.11825 14.1159C9.35267 13.8815 9.67061 13.7498 10.0021 13.7498Z" fill="#FF4242"/>
</g>
<defs>
<clipPath id="clip0_1324_1648">
<rect width="20" height="20" fill="white"/>
</clipPath>
</defs>
</svg>
