<svg width="20" height="20" viewBox="0 0 20 20" fill="none" xmlns="http://www.w3.org/2000/svg">
<path d="M13.4875 16.14L11.47 14.1212C10.6898 14.4002 9.84643 14.4518 9.03802 14.2702C8.22962 14.0886 7.48941 13.6811 6.90352 13.0952C6.31764 12.5093 5.91017 11.7691 5.72854 10.9607C5.5469 10.1523 5.59856 9.30894 5.8775 8.52874L3.3025 5.95374C1.1725 7.8475 0 10 0 10C0 10 3.75 16.875 10 16.875C11.2006 16.8719 12.3877 16.6217 13.4875 16.14ZM6.5125 3.86C7.61226 3.37832 8.79939 3.12813 10 3.12499C16.25 3.12499 20 10 20 10C20 10 18.8263 12.1512 16.6987 14.0475L14.1213 11.47C14.4002 10.6898 14.4519 9.84643 14.2702 9.03802C14.0886 8.22961 13.6811 7.4894 13.0952 6.90352C12.5093 6.31764 11.7691 5.91017 10.9607 5.72853C10.1523 5.54689 9.30895 5.59855 8.52875 5.8775L6.5125 3.86Z" fill="#888888"/>
<path d="M6.90625 9.5575C6.83749 10.0379 6.88156 10.5277 7.03495 10.9881C7.18835 11.4485 7.44687 11.8668 7.79001 12.21C8.13316 12.5531 8.55151 12.8116 9.01191 12.965C9.47231 13.1184 9.96211 13.1625 10.4425 13.0937L6.90625 9.5575ZM13.0938 10.4425L9.5575 6.905C10.0379 6.83624 10.5277 6.8803 10.9881 7.0337C11.4485 7.1871 11.8668 7.44561 12.21 7.78876C12.5531 8.13191 12.8116 8.55026 12.965 9.01066C13.1184 9.47106 13.1625 9.96086 13.0938 10.4412V10.4425ZM17.0575 17.9425L2.0575 2.9425L2.9425 2.0575L17.9425 17.0575L17.0575 17.9425Z" fill="#888888"/>
</svg>
