<svg width="328" height="52" viewBox="0 0 328 52" fill="none" xmlns="http://www.w3.org/2000/svg">
<rect x="0.5" y="0.5" width="327" height="51" rx="9.5" stroke="black"/>
<path d="M164.129 19.8164V32.2578H162.393V19.8164H164.129ZM153.725 28.7441C154.675 28.7373 155.762 28.7373 156.896 28.71V27.6572C155.536 27.4111 154.647 26.5635 154.654 25.3945C154.647 24.0068 155.912 23.0566 157.744 23.0566C159.59 23.0566 160.875 24.0068 160.875 25.3945C160.875 26.5566 159.986 27.4043 158.619 27.6572V28.6484C159.665 28.6006 160.711 28.5186 161.709 28.3887L161.832 29.6738C159.104 30.1455 156.172 30.1729 153.957 30.166L153.725 28.7441ZM153.971 22.5645V21.1973H156.896V19.8711H158.633V21.1973H161.531V22.5645H153.971ZM156.309 25.3945C156.302 26.0508 156.896 26.4062 157.744 26.4062C158.619 26.4062 159.207 26.0508 159.207 25.3945C159.207 24.752 158.619 24.3896 157.744 24.3828C156.896 24.3896 156.302 24.752 156.309 25.3945ZM176.311 19.8301V29.2227H174.561V28.2383H172.182V27.0488H174.561V19.8301H176.311ZM165.729 25.3398C168.005 25.3262 171.081 25.292 173.713 24.9707L173.809 26.2148C172.824 26.3789 171.806 26.4951 170.801 26.5703V28.9355H169.051V30.6445H176.584V32.0391H167.314V28.3203H169.051V26.6729C167.937 26.7139 166.877 26.7207 165.934 26.7207L165.729 25.3398ZM166.645 22.4824C166.645 21.1562 167.923 20.2471 169.775 20.2539C171.58 20.2471 172.872 21.1562 172.879 22.4824C172.872 23.8154 171.58 24.6768 169.775 24.6699C167.923 24.6768 166.645 23.8154 166.645 22.4824ZM168.299 22.4824C168.292 23.084 168.887 23.4189 169.775 23.4121C170.609 23.4189 171.211 23.084 171.225 22.4824C171.211 21.8672 170.609 21.5254 169.775 21.5254C168.887 21.5254 168.292 21.8672 168.299 22.4824ZM187.686 19.8164V24.5879H189.449V26.0234H187.686V32.2305H185.936V19.8164H187.686ZM177.732 28.7441C180.679 27.2676 182.265 25.2852 182.593 22.5098H178.443V21.0879H184.363C184.35 24.8066 182.9 28.0264 178.717 30.084L177.732 28.7441ZM200.387 19.8164V26.502H198.637V19.8164H200.387ZM190.16 23.2891C190.16 21.5391 191.623 20.3223 193.564 20.3359C195.499 20.3223 196.962 21.5391 196.969 23.2891C196.962 24.9844 195.499 26.2012 193.564 26.2012C191.623 26.2012 190.16 24.9844 190.16 23.2891ZM191.869 23.2891C191.855 24.2119 192.566 24.7656 193.564 24.7656C194.535 24.7656 195.239 24.2119 195.246 23.2891C195.239 22.3525 194.535 21.7783 193.564 21.7852C192.566 21.7783 191.855 22.3525 191.869 23.2891ZM192.061 32.1211V27.0488H193.783V28.2109H198.65V27.0488H200.387V32.1211H192.061ZM193.783 30.7129H198.65V29.5645H193.783V30.7129Z" fill="black"/>
<rect x="125" y="16" width="20" height="20" fill="#D9D9D9"/>
</svg>
