<svg width="110" height="33" viewBox="0 0 110 33" fill="none" xmlns="http://www.w3.org/2000/svg">
<rect x="0.5" width="109" height="28" rx="4" fill="black"/>
<path d="M17.6973 10.0801V12.668H18.9668V13.4395H17.6973V16.4375H16.7598V10.0801H17.6973ZM10.8125 14.7383C12.8633 14.123 14.1328 12.9561 14.3135 11.5156H11.1836V10.7441H15.3242C15.3242 13.0391 13.7617 14.7041 11.2031 15.4805L10.8125 14.7383ZM12.1406 18.6445V15.7832H13.0781V17.8926H18.0586V18.6445H12.1406ZM26.7598 10.0801V16.5742H25.832V14.1621H24.4648V13.3809H25.832V12.4629H24.4648V11.7012H25.832V10.0801H26.7598ZM19.4746 14.5527C19.8018 14.5527 20.1631 14.5479 20.5391 14.5479V11.5156H19.7188V10.7637H24.3672V11.5156H23.5273V14.4453C23.8984 14.416 24.2549 14.3867 24.6016 14.3477L24.6406 15.0312C22.9658 15.2949 20.9932 15.3291 19.5918 15.334L19.4746 14.5527ZM21.0566 18.6445V16.0469H21.9941V17.8926H26.9844V18.6445H21.0566ZM21.4375 14.5332C21.833 14.5234 22.2334 14.5088 22.6387 14.4941V11.5156H21.4375V14.5332ZM34.9238 10.0801V13.625H36.3301V14.3965H34.9238V18.8301H34.0059V10.0801H34.9238ZM28.0586 12.209V11.4473H30.2168V10.1973H31.1445V11.4473H33.2441V12.209H28.0586ZM28.5078 14.8848C28.5078 13.6934 29.4258 12.8535 30.6855 12.8535C31.9404 12.8535 32.8584 13.6934 32.8633 14.8848C32.8584 16.0859 31.9404 16.9209 30.6855 16.9258C29.4258 16.9209 28.5078 16.0859 28.5078 14.8848ZM29.3965 14.8848C29.3916 15.6465 29.9385 16.1543 30.6855 16.1445C31.4277 16.1543 31.9697 15.6465 31.9746 14.8848C31.9697 14.1377 31.4277 13.6201 30.6855 13.6152C29.9385 13.6201 29.3916 14.1377 29.3965 14.8848ZM44.2695 10.0801V18.8301H43.3906V10.0801H44.2695ZM36.7207 16.3008C38.5762 15.1973 39.4648 13.7275 39.626 11.9258H37.1309V11.1641H40.5488C40.5439 12.0186 40.4268 12.834 40.1582 13.5957H41.5449V10.3047H42.4238V18.4004H41.5449V14.3379H39.8359C39.3184 15.3535 38.4834 16.2422 37.248 16.9648L36.7207 16.3008ZM55.0703 10.0801V18.8301H54.1426V10.0801H55.0703ZM47.8828 16.4473C48.6055 16.4424 49.4258 16.4375 50.2852 16.418V15.5391C49.2646 15.4023 48.6006 14.8018 48.6055 13.9473C48.6006 12.9609 49.46 12.3115 50.7246 12.3066C52.0039 12.3115 52.8779 12.9609 52.8828 13.9473C52.8779 14.792 52.2188 15.3877 51.2031 15.5342V16.3838C52.0137 16.3447 52.834 16.2861 53.6055 16.1836L53.6738 16.877C51.7305 17.1992 49.6113 17.2236 48.0098 17.2188L47.8828 16.4473ZM48.0684 11.8672V11.125H50.2852V10.0996H51.2129V11.125H53.4102V11.8672H48.0684ZM49.4844 13.9473C49.4746 14.5039 49.9922 14.8506 50.7246 14.8457C51.4814 14.8506 51.9941 14.5039 51.9941 13.9473C51.9941 13.3857 51.4814 13.0293 50.7246 13.0293C49.9922 13.0293 49.4746 13.3857 49.4844 13.9473ZM63.752 10.0898V16.7207H62.8242V15.8809H61.0664V15.2266H62.8242V10.0898H63.752ZM56.4375 14.084C58.0537 14.0693 60.2363 14.0547 62.1016 13.8203L62.1602 14.4844C61.4131 14.6113 60.627 14.6895 59.8555 14.7432V16.4473H58.9277V14.792C58.0781 14.8262 57.2627 14.8262 56.5547 14.8262L56.4375 14.084ZM57.1211 11.9648C57.1162 11.0371 58 10.4219 59.2988 10.4219C60.5781 10.4219 61.4668 11.0371 61.4668 11.9648C61.4668 12.8975 60.5781 13.4883 59.2988 13.4883C58.0049 13.4883 57.1162 12.8975 57.1211 11.9648ZM57.6484 18.6445V16.0762H58.5664V17.8926H63.9668V18.6445H57.6484ZM58 11.9648C57.9951 12.4824 58.5225 12.8047 59.2988 12.8047C60.0459 12.8047 60.583 12.4824 60.5879 11.9648C60.583 11.4424 60.0459 11.1055 59.2988 11.1152C58.5225 11.1055 57.9951 11.4424 58 11.9648ZM71.9355 10.0801V13.5664H73.293V14.3379H71.9355V18.8203H71.0078V10.0801H71.9355ZM65.1289 16.4863C67.3213 15.3926 68.5127 13.8105 68.7031 11.7695H65.5684V10.998H69.6504C69.6406 13.5273 68.5273 15.7881 65.6465 17.209L65.1289 16.4863ZM81.0176 10.0801V14.7773H80.0898V10.0801H81.0176ZM73.9375 12.5117C73.9424 11.3105 74.9287 10.4756 76.2715 10.4805C77.6094 10.4756 78.5957 11.3105 78.5957 12.5117C78.5957 13.708 77.6094 14.543 76.2715 14.5332C74.9287 14.543 73.9424 13.708 73.9375 12.5117ZM74.8457 12.5117C74.8408 13.2686 75.4414 13.7715 76.2715 13.7715C77.0918 13.7715 77.6875 13.2686 77.6875 12.5117C77.6875 11.7646 77.0918 11.2568 76.2715 11.2617C75.4414 11.2568 74.8408 11.7646 74.8457 12.5117ZM75.2949 18.7227V15.1973H76.2031V16.1836H80.0996V15.1973H81.0176V18.7227H75.2949ZM76.2031 17.9609H80.0996V16.916H76.2031V17.9609ZM89.2207 10.0801V13.625H90.627V14.3965H89.2207V18.8301H88.3027V10.0801H89.2207ZM82.3555 12.209V11.4473H84.5137V10.1973H85.4414V11.4473H87.541V12.209H82.3555ZM82.8047 14.8848C82.8047 13.6934 83.7227 12.8535 84.9824 12.8535C86.2373 12.8535 87.1553 13.6934 87.1602 14.8848C87.1553 16.0859 86.2373 16.9209 84.9824 16.9258C83.7227 16.9209 82.8047 16.0859 82.8047 14.8848ZM83.6934 14.8848C83.6885 15.6465 84.2354 16.1543 84.9824 16.1445C85.7246 16.1543 86.2666 15.6465 86.2715 14.8848C86.2666 14.1377 85.7246 13.6201 84.9824 13.6152C84.2354 13.6201 83.6885 14.1377 83.6934 14.8848ZM98.3223 10.0801V18.8301H97.3848V10.0801H98.3223ZM91.1348 16.4863C93.459 15.3779 94.5967 13.8008 94.7773 11.7598H91.5547V11.0176H95.7148C95.7148 13.5811 94.626 15.7979 91.623 17.2383L91.1348 16.4863Z" fill="white"/>
<path d="M55.933 32.25C55.7406 32.5833 55.2594 32.5833 55.067 32.25L52.4689 27.75C52.2765 27.4167 52.517 27 52.9019 27L58.0981 27C58.483 27 58.7235 27.4167 58.5311 27.75L55.933 32.25Z" fill="black"/>
</svg>
