<svg width="90" height="33" viewBox="0 0 90 33" fill="none" xmlns="http://www.w3.org/2000/svg">
<rect width="90" height="28" rx="4" fill="black"/>
<path d="M13.1348 18.0977C11.6699 18.0977 10.6299 17.3115 10.5859 16.1543H11.6797C11.7188 16.7744 12.334 17.1699 13.125 17.1699C13.9795 17.1699 14.5996 16.7061 14.5996 16.0176C14.5996 15.3193 14.0186 14.8213 13.0078 14.8164H12.4023V13.9375H13.0078C13.8135 13.9424 14.375 13.4932 14.375 12.8145C14.375 12.1699 13.8916 11.7305 13.1445 11.7305C12.4365 11.7305 11.8018 12.126 11.7773 12.7656H10.7422C10.7715 11.6133 11.8359 10.832 13.1543 10.832C14.5459 10.832 15.4199 11.7109 15.4102 12.7559C15.4199 13.5615 14.9219 14.1377 14.1602 14.3281V14.377C15.127 14.5137 15.6885 15.1631 15.6836 16.0566C15.6885 17.2334 14.5996 18.0977 13.1348 18.0977ZM24.5703 16.9941V17.7559H16.5625V16.9941H20.0977V15.0898H21.0156V16.9941H24.5703ZM16.9531 14.6699C18.75 14.4062 20.0439 13.3906 20.0879 12.1602H17.2852V11.4082H20.0977V10.2363H21.0156V11.4082H23.8281V12.1602H21.0254C21.0693 13.3906 22.3633 14.4062 24.1602 14.6699L23.8086 15.3926C22.3438 15.1631 21.123 14.4697 20.5518 13.4492C19.9854 14.4697 18.7695 15.1631 17.3047 15.3926L16.9531 14.6699ZM29.6387 10.8516V14.9336H25.5469V10.8516H29.6387ZM26.4551 14.2012H28.7305V11.6035H26.4551V14.2012ZM26.5332 18.6445V15.8711H27.4609V17.8926H32.4512V18.6445H26.5332ZM31.1523 16.4863V10.0703H32.0801V12.6875H33.3496V13.4688H32.0801V16.4863H31.1523ZM41.377 10.0801V18.8301H40.4883V10.0801H41.377ZM33.9453 13.8594C33.9453 11.9648 34.6875 10.7783 35.8301 10.7832C36.8945 10.7783 37.6123 11.7891 37.7197 13.4297H38.7109V10.2461H39.5996V18.4004H38.7109V14.1816H37.7246C37.6416 15.8906 36.9141 16.9502 35.8301 16.9453C34.6875 16.9502 33.9453 15.7588 33.9453 13.8594ZM34.8047 13.8594C34.8047 15.251 35.2002 16.0713 35.8301 16.0664C36.4746 16.0713 36.875 15.251 36.875 13.8594C36.875 12.4629 36.4746 11.6475 35.8301 11.6523C35.2002 11.6475 34.8047 12.4629 34.8047 13.8594ZM48.1445 12.3066C48.1348 13.9033 49.1016 15.5146 50.459 16.1152L49.9023 16.8477C48.8965 16.3691 48.1006 15.3877 47.6904 14.1914C47.2852 15.4756 46.4795 16.5303 45.4297 17.043L44.8633 16.2617C46.2402 15.6514 47.207 13.9766 47.207 12.3066V10.8125H48.1445V12.3066ZM51.25 18.8496V10.0801H52.1777V18.8496H51.25ZM56.6309 11.6523C56.626 12.7705 57.4023 13.8301 58.7402 14.2793L58.2715 15.002C57.2803 14.6602 56.5527 13.9766 56.1719 13.1172C55.791 14.0596 55.0293 14.8066 54.0039 15.168L53.5059 14.4453C54.873 13.9814 55.6982 12.8486 55.7031 11.6426V11.4082H53.7793V10.6562H58.5156V11.4082H56.6309V11.6523ZM54.668 16.5352V15.7832H60.4492V18.8301H59.5215V16.5352H54.668ZM59.5215 15.3535V10.0801H60.4492V12.3262H61.7188V13.1074H60.4492V15.3535H59.5215ZM69.0332 10.0801V13.625H70.4395V14.3965H69.0332V18.8301H68.1152V10.0801H69.0332ZM62.168 12.209V11.4473H64.3262V10.1973H65.2539V11.4473H67.3535V12.209H62.168ZM62.6172 14.8848C62.6172 13.6934 63.5352 12.8535 64.7949 12.8535C66.0498 12.8535 66.9678 13.6934 66.9727 14.8848C66.9678 16.0859 66.0498 16.9209 64.7949 16.9258C63.5352 16.9209 62.6172 16.0859 62.6172 14.8848ZM63.5059 14.8848C63.501 15.6465 64.0479 16.1543 64.7949 16.1445C65.5371 16.1543 66.0791 15.6465 66.084 14.8848C66.0791 14.1377 65.5371 13.6201 64.7949 13.6152C64.0479 13.6201 63.501 14.1377 63.5059 14.8848ZM78.1348 10.0801V18.8301H77.1973V10.0801H78.1348ZM70.9473 16.4863C73.2715 15.3779 74.4092 13.8008 74.5898 11.7598H71.3672V11.0176H75.5273C75.5273 13.5811 74.4385 15.7979 71.4355 17.2383L70.9473 16.4863Z" fill="white"/>
<path d="M45.433 32.25C45.2406 32.5833 44.7594 32.5833 44.567 32.25L41.9689 27.75C41.7765 27.4167 42.017 27 42.4019 27L47.5981 27C47.983 27 48.2235 27.4167 48.0311 27.75L45.433 32.25Z" fill="black"/>
</svg>
