<svg width="16" height="30" viewBox="0 0 16 30" fill="none" xmlns="http://www.w3.org/2000/svg">
<path d="M3.64337 12.6388C3.3897 12.573 3.28636 12.4791 3.29575 12.1972C3.31454 8.24186 3.31454 4.49321 3.31454 0.53787C3.31454 0.302992 3.28636 0.0587194 3.38031 0.021139C3.43668 -0.00704633 3.51184 -0.00704633 3.56821 0.021139C7.45779 1.064 11.3192 2.09746 15.2181 3.13092C15.4624 3.19669 15.5 3.31882 15.5 3.53491C15.5 7.3963 15.5 11.2671 15.5 15.1285C15.5 15.6546 15.5 16.1807 15.5 16.7069C15.5 16.735 15.5 16.7538 15.5 16.782C15.5 18.5107 15.5 20.2488 15.4812 21.9775C15.4718 22.6727 15.406 23.3962 15.2369 24.0632C14.1189 28.3662 9.61866 30.8465 5.40965 29.5124C1.20064 28.1783 -1.04479 23.6029 0.47722 19.4314C1.75495 15.9177 5.08082 14.3769 8.30335 15.3446C8.72613 15.4667 9.75959 15.7298 10.8118 15.9928L14.025 16.782C14.1941 16.0868 13.6773 15.3634 12.8506 15.1097L3.63398 12.6388H3.64337Z" fill="black"/>
</svg>
